<svg width="3250" height="3076" viewBox="0 0 3250 3076" fill="none" xmlns="http://www.w3.org/2000/svg">
<path d="M2365.98 2439.79L2618.12 2883.56H621.528L873.669 2439.79L880.258 2428.19H866.921H690.984H686.471L684.238 2432.11L509.732 2738.75L329.993 2435.9L1619.85 200.484L2920 2435.91L2739.99 2739.21L2550.1 2431.87L2547.82 2428.19H2543.49H2372.73H2359.39L2365.98 2439.79ZM2372.73 2109.95H2386.38L2379.4 2098.22L1626.5 833.031L1619.83 821.822L1613.16 833.031L860.25 2098.22L853.269 2109.95H866.921H1066.14H1070.63L1072.87 2106.07L1619.83 1157.83L2069.51 1936.6H1715.12L1626.73 1764.88L1620.2 1752.19L1613.09 1764.57L1149.97 2571.8L1143.3 2583.43H1156.7H2064.84H2076.99L2071.89 2572.41L2007.2 2432.69L2005.12 2428.19H2000.16H1441.77L1624.32 2109.95H2372.73Z" fill="white" stroke="white" stroke-width="15.5238"/>
<path d="M1592.39 617.804L1593.19 617.465L1593.64 618.216L2131.07 1526.35L2372.32 1600.1L2372.69 1600.21L2372.89 1600.55L2857.93 2420.14L2878.75 2407.82L2391.47 1584.42L2391.18 1583.94L2391.45 1583.44L2391.72 1582.92L2149.08 1508.74L2148.71 1508.63L2148.51 1508.3L1614.47 605.89L1614.02 605.139L1614.71 604.597C1643.86 581.502 1654.53 544.972 1638.73 518.277C1621.13 488.527 1576.96 481.717 1539.9 503.649C1502.84 525.582 1487.55 567.576 1505.16 597.326C1520.96 624.021 1558.11 632.246 1592.39 617.804ZM2301.74 1673.93L2301.62 1674.05L2409.56 1707.65L2354.08 1616.41L2353.99 1616.38L2146.88 1553.06L2200 1642.82L2300.22 1673.46L2301.74 1673.93ZM2377.71 1802.29L2377.59 1802.42L2485.52 1836.02L2430.05 1744.78L2429.96 1744.75L2222.85 1681.43L2275.97 1771.18L2376.19 1801.82L2377.71 1802.29ZM2442.82 1912.31L2442.7 1912.44L2550.64 1946.04L2495.16 1854.8L2495.07 1854.77L2287.96 1791.45L2341.08 1881.21L2441.3 1911.85L2442.82 1912.31ZM2529.64 2059.01L2529.52 2059.14L2637.45 2092.74L2581.98 2001.5L2581.89 2001.47L2477.1 1969.43L2374.78 1938.15L2427.9 2027.91L2528.12 2058.55L2529.64 2059.01ZM1582.29 575.278C1594.44 568.086 1599.25 554.461 1593.63 544.966C1588.01 535.471 1573.76 533.132 1561.6 540.324C1549.45 547.517 1544.64 561.142 1550.26 570.637C1555.88 580.131 1570.14 582.471 1582.29 575.278ZM1606.63 537.275C1615.99 553.099 1607.71 574.935 1588.73 586.168C1569.75 597.401 1546.63 594.152 1537.26 578.328C1527.9 562.503 1536.18 540.667 1555.16 529.434C1574.14 518.202 1597.26 521.451 1606.63 537.275Z" fill="#4D4F49" stroke="black" stroke-width="2"/>
<path d="M1129.1 1283.01L1184.78 1259.67L1268.84 1114L1175.48 1125.16L732.54 1892.78L680.797 1909.28L412.74 2373.82L432.845 2478.14L390.557 2551.43L395.526 2554.29L1129.1 1283.01Z" fill="#4D4F49"/>
<path d="M1647.86 526.028L1603.55 466.52L1720.74 263.437L1714.53 259.854M1184.78 1259.67L1129.1 1283.01L395.526 2554.29L390.557 2551.43L432.845 2478.14L412.74 2373.82L680.797 1909.28L732.54 1892.78L1175.48 1125.16L1268.84 1114L1184.78 1259.67Z" stroke="white" stroke-width="0.569265"/>
<path d="M728.149 1837.26L1132.03 1137.34L1118.36 1129.46L714.486 1829.38L728.149 1837.26Z" fill="#4D4F49"/>
<g clip-path="url(#clip0_284_37)">
<path d="M1738.13 1401.47L1696.89 1472.94L1592.01 1346.47L1633.25 1275L1738.13 1401.47Z" fill="#4D4F49"/>
<path d="M1681.06 1500.37L1639.82 1571.83L1534.94 1445.36L1576.18 1373.89L1681.06 1500.37Z" fill="#4D4F49"/>
<path d="M1623.99 1599.27L1582.75 1670.74L1477.87 1544.27L1519.11 1472.8L1623.99 1599.27Z" fill="#4D4F49"/>
<path d="M1566.75 1698.47L1525.51 1769.94L1420.63 1643.47L1461.87 1572L1566.75 1698.47Z" fill="#4D4F49"/>
<path d="M1509.68 1797.38L1468.44 1868.84L1363.56 1742.37L1404.8 1670.9L1509.68 1797.38Z" fill="#4D4F49"/>
<path d="M1452.61 1896.27L1411.37 1967.74L1306.49 1841.26L1347.73 1769.79L1452.61 1896.27Z" fill="#4D4F49"/>
<path d="M1395.55 1995.16L1354.31 2066.63L1249.43 1940.16L1290.67 1868.69L1395.55 1995.16Z" fill="#4D4F49"/>
<path d="M1338.47 2094.07L1297.23 2165.54L1192.35 2039.07L1233.59 1967.6L1338.47 2094.07Z" fill="#4D4F49"/>
<path d="M1281.28 2193.19L1240.04 2264.66L1135.16 2138.19L1176.4 2066.72L1281.28 2193.19Z" fill="#4D4F49"/>
<path d="M1224.16 2292.17L1182.92 2363.64L1078.04 2237.16L1119.28 2165.7L1224.16 2292.17Z" fill="#4D4F49"/>
<path d="M1167.1 2391.06L1125.86 2462.53L1020.98 2336.06L1062.22 2264.59L1167.1 2391.06Z" fill="#4D4F49"/>
<path d="M1110.04 2489.95L1068.8 2561.42L963.915 2434.95L1005.16 2363.48L1110.04 2489.95Z" fill="#4D4F49"/>
<path d="M1052.96 2588.86L1011.72 2660.33L906.843 2533.86L948.083 2462.39L1052.96 2588.86Z" fill="#4D4F49"/>
</g>
<path d="M2056.74 2842.54L2283 2636.06H2135.48L2026 2735.97L2024.34 2737.49L2024.27 2737.26L1905.62 2844.43L2056.64 2842.63L2056.74 2842.54ZM1845.78 2842.54L2072.04 2636.06H1924.52L1815.03 2735.97L1813.37 2737.49L1813.3 2737.26L1694.66 2844.43L1845.67 2842.63L1845.78 2842.54ZM1664.95 2842.54L1891.21 2636.06H1743.7L1634.21 2735.97L1632.55 2737.49L1632.48 2737.26L1513.83 2844.43L1664.85 2842.63L1664.95 2842.54ZM1538.33 2738.07L1650.11 2636.06H1502.6L1393.11 2735.97L1391.45 2737.49L1391.38 2737.26L1272.74 2844.43L1423.75 2842.63L1423.85 2842.54L1538.33 2738.07Z" fill="#4D4F49" stroke="black" stroke-width="2.82873"/>
<defs>
<clipPath id="clip0_284_37">
<rect width="2307" height="1286" fill="white" transform="translate(193 1275)"/>
</clipPath>
</defs>
</svg>
