<svg width="1728" height="960" viewBox="0 0 1728 960" fill="none" xmlns="http://www.w3.org/2000/svg">
<g clip-path="url(#clip0_129_530)">
<path d="M1829.8 -314.926C1773.4 -295.731 1662.17 -212.128 1668.43 -31.273C1676.25 194.796 1846.86 336.267 1889.52 549.539C1921 706.951 1916.53 1101.2 1724.59 1266.85" stroke="#585858" stroke-width="7.78561"/>
<path d="M1749.65 -274.235C1693.25 -255.04 1582.02 -171.437 1588.28 9.41771C1596.1 235.487 1766.71 376.958 1809.37 590.23C1840.85 747.641 1836.38 1141.9 1644.44 1307.54" stroke="#585858" stroke-width="7.78561"/>
<path d="M1668.43 -235.735C1612.03 -216.541 1500.8 -132.938 1507.05 47.9175C1514.87 273.986 1685.49 415.457 1728.14 628.73C1759.63 786.141 1755.16 1180.4 1563.21 1346.04" stroke="#585858" stroke-width="7.78561"/>
<path d="M1586.11 -199.637C1529.71 -180.442 1418.47 -96.8393 1424.73 84.0159C1432.55 310.085 1603.17 451.556 1645.82 664.828C1677.31 822.239 1672.84 1216.49 1480.89 1382.14" stroke="#585858" stroke-width="7.78561"/>
<path d="M1502.66 -166.213C1446.27 -147.018 1335.03 -63.4152 1341.29 117.44C1349.11 343.509 1519.73 484.98 1562.38 698.252C1593.86 855.663 1589.4 1249.92 1397.45 1415.56" stroke="#585858" stroke-width="7.78561"/>
<path d="M1418.07 -135.811C1361.68 -116.616 1250.44 -33.0134 1256.7 147.842C1264.52 373.911 1435.14 515.382 1477.79 728.654C1509.27 886.065 1504.81 1280.32 1312.86 1445.96" stroke="#585858" stroke-width="7.78561"/>
<path d="M1332.32 -108.873C1275.92 -89.6785 1164.69 -6.07564 1170.94 174.78C1178.76 400.848 1349.38 542.319 1392.04 755.592C1423.52 913.003 1419.05 1307.26 1227.1 1472.9" stroke="#585858" stroke-width="7.78561"/>
<path d="M1245.4 -85.957C1189 -66.7625 1077.77 16.8404 1084.03 197.696C1091.85 423.765 1262.46 565.235 1305.12 778.508C1336.6 935.919 1332.13 1330.17 1140.19 1495.81" stroke="#585858" stroke-width="7.78561"/>
<path d="M1157.37 -67.7729C1100.97 -48.5784 989.741 35.0245 995.997 215.88C1003.82 441.949 1174.43 583.419 1217.09 796.692C1248.57 954.103 1244.1 1348.36 1052.16 1514" stroke="#585858" stroke-width="7.78561"/>
<path d="M1068.37 -55.2207C1011.97 -36.0262 900.734 47.5767 906.99 228.432C914.81 454.501 1085.43 595.972 1128.08 809.244C1159.57 966.655 1155.1 1360.91 963.152 1526.55" stroke="#585858" stroke-width="7.78561"/>
<path d="M978.667 -49.429C922.268 -30.2344 811.034 53.3684 817.29 234.224C825.11 460.293 995.728 601.763 1038.38 815.036C1069.87 972.447 1065.4 1366.7 873.452 1532.34" stroke="#585858" stroke-width="7.78561"/>
<path d="M888.81 -51.7854C832.411 -32.5909 721.178 51.012 727.434 231.867C735.254 457.936 905.872 599.407 948.526 812.68C980.009 970.091 975.541 1364.34 783.596 1529.99" stroke="#585858" stroke-width="7.78561"/>
<path d="M799.742 -63.8916C743.343 -44.6971 632.109 38.9058 638.365 219.761C646.185 445.83 816.804 587.301 859.458 800.573C890.94 957.985 886.473 1352.24 694.527 1517.88" stroke="#585858" stroke-width="7.78561"/>
<path d="M712.976 -87.3782C656.577 -68.1836 545.344 15.4192 551.6 196.274C559.42 422.343 730.038 563.814 772.692 777.087C804.175 934.498 799.707 1328.75 607.762 1494.39" stroke="#585858" stroke-width="7.78561"/>
<path d="M615.734 -129.82C559.336 -110.625 448.102 -27.0222 454.358 153.833C462.178 379.902 632.796 521.373 675.451 734.645C706.933 892.057 702.465 1286.31 510.52 1451.95" stroke="#585858" stroke-width="7.78561"/>
<path d="M532.419 -163.559C476.02 -144.365 364.787 -60.7617 371.043 120.093C378.863 346.162 549.481 487.633 592.135 700.906C623.618 858.317 619.15 1252.57 427.205 1418.21" stroke="#585858" stroke-width="7.78561"/>
<path d="M446.603 -190.3C390.204 -171.106 278.97 -87.5026 285.226 93.3525C293.046 319.421 463.664 460.892 506.319 674.165C537.801 831.576 533.333 1225.83 341.388 1391.47" stroke="#585858" stroke-width="7.78561"/>
<path d="M358.872 -209.877C302.474 -190.682 191.24 -107.079 197.496 73.7759C205.316 299.845 375.934 441.316 418.589 654.588C450.071 811.999 445.603 1206.25 253.658 1371.9" stroke="#585858" stroke-width="7.78561"/>
<path d="M269.846 -222.293C213.447 -203.098 102.214 -119.495 108.47 61.3599C116.29 287.429 286.908 428.9 329.562 642.172C361.045 799.583 356.577 1193.84 164.632 1359.48" stroke="#585858" stroke-width="7.78561"/>
<path d="M180.123 -227.703C123.724 -208.509 12.4904 -124.906 18.7464 55.9495C26.5663 282.018 197.184 423.489 239.839 636.762C271.321 794.173 266.854 1188.43 74.9082 1354.07" stroke="#585858" stroke-width="7.78561"/>
<path d="M90.2447 -226.386C33.8459 -207.191 -77.3876 -123.588 -71.1316 57.2668C-63.3116 283.336 107.307 424.807 149.961 638.079C181.443 795.49 176.976 1189.74 -14.9698 1355.39" stroke="#585858" stroke-width="7.78561"/>
<path d="M0.687308 -218.695C-55.7114 -199.501 -166.945 -115.898 -160.689 64.9573C-152.869 291.026 17.7492 432.497 60.4037 645.77C91.8859 803.181 87.4182 1197.43 -104.527 1363.08" stroke="#585858" stroke-width="7.78561"/>
</g>
<defs>
<clipPath id="clip0_129_530">
<rect width="2400" height="960" fill="white" transform="translate(-336)"/>
</clipPath>
</defs>
</svg>
