<svg width="1728" height="875" viewBox="0 0 1728 875" fill="none" xmlns="http://www.w3.org/2000/svg">
<g clip-path="url(#clip0_136_562)">
<rect width="2400" height="960" transform="translate(-336 -85)" fill="black"/>
<path d="M2339 -102.292C1977.21 -47.5636 1409.98 63.194 1698.55 412.828C2065.78 857.761 2963.16 741.201 2564.6 1084.61" stroke="#3B3838" stroke-width="8.2894"/>
<path d="M2209.71 -99.9067C1847.92 -45.1778 1280.69 65.5797 1569.26 415.213C1936.49 860.147 2833.87 743.587 2435.31 1087" stroke="#3B3838" stroke-width="8.2894"/>
<path d="M2080.62 -107.569C1718.83 -52.8397 1151.6 57.9179 1440.17 407.551C1807.4 852.485 2704.78 735.925 2306.22 1079.34" stroke="#3B3838" stroke-width="8.2894"/>
<path d="M1952.15 -122.311C1590.36 -67.5824 1023.13 43.1752 1311.7 392.809C1678.93 837.742 2576.31 721.182 2177.75 1064.6" stroke="#3B3838" stroke-width="8.2894"/>
<path d="M1824.26 -141.407C1462.46 -86.6786 895.231 24.079 1183.8 373.713C1551.03 818.646 2448.42 702.086 2049.86 1045.5" stroke="#3B3838" stroke-width="8.2894"/>
<path d="M1696.69 -162.611C1334.9 -107.882 767.668 2.87563 1056.24 352.509C1423.46 797.442 2320.85 680.882 1922.29 1024.3" stroke="#3B3838" stroke-width="8.2894"/>
<path d="M1569.19 -184.17C1207.39 -129.441 640.162 -18.6837 928.733 330.95C1295.96 775.883 2193.35 659.323 1794.79 1002.74" stroke="#3B3838" stroke-width="8.2894"/>
<path d="M1441.52 -204.766C1079.73 -150.037 512.499 -39.2794 801.069 310.354C1168.3 755.287 2065.68 638.727 1667.12 982.141" stroke="#3B3838" stroke-width="8.2894"/>
<path d="M1313.56 -223.431C951.766 -168.702 384.537 -57.9444 673.108 291.689C1040.33 736.622 1937.72 620.062 1539.16 963.476" stroke="#3B3838" stroke-width="8.2894"/>
<path d="M1185.25 -239.477C823.451 -184.748 256.222 -73.9903 544.793 275.643C912.02 720.577 1809.41 604.017 1410.85 947.43" stroke="#3B3838" stroke-width="8.2894"/>
<path d="M1056.58 -252.437C694.787 -197.708 127.558 -86.9505 416.129 262.683C783.356 707.616 1680.74 591.056 1282.18 934.47" stroke="#3B3838" stroke-width="8.2894"/>
<path d="M926.827 -262.137C565.032 -207.408 -2.197 -96.6502 286.374 252.983C653.6 697.917 1550.99 581.357 1152.43 924.77" stroke="#3B3838" stroke-width="8.2894"/>
<path d="M797.728 -269.603C435.933 -214.874 -131.296 -104.116 157.275 245.517C524.501 690.451 1421.89 573.891 1023.33 917.304" stroke="#3B3838" stroke-width="8.2894"/>
<path d="M668.535 -275.203C306.74 -220.474 -260.489 -109.717 28.0819 239.917C395.309 684.85 1292.7 568.29 894.135 911.704" stroke="#3B3838" stroke-width="8.2894"/>
<path d="M539.267 -278.683C177.471 -223.954 -389.757 -113.196 -101.187 236.437C266.04 681.371 1163.43 564.811 764.867 908.224" stroke="#3B3838" stroke-width="8.2894"/>
<path d="M409.957 -279.72C48.1611 -224.991 -519.068 -114.233 -230.497 235.4C136.73 680.333 1034.12 563.773 635.557 907.187" stroke="#3B3838" stroke-width="8.2894"/>
<path d="M280.655 -277.906C-81.1408 -223.177 -648.37 -112.419 -359.799 237.214C7.42792 682.148 904.815 565.588 506.255 909.001" stroke="#3B3838" stroke-width="8.2894"/>
<path d="M151.445 -272.701C-210.351 -217.973 -777.58 -107.215 -489.009 242.419C-121.782 687.352 775.604 570.792 377.045 914.205" stroke="#3B3838" stroke-width="8.2894"/>
<path d="M22.4659 -263.378C-339.33 -208.649 -906.558 -97.8917 -617.988 251.742C-250.761 696.675 646.626 580.115 248.066 923.528" stroke="#3B3838" stroke-width="8.2894"/>
<path d="M-106.039 -248.913C-467.835 -194.184 -1035.06 -83.4269 -746.492 266.207C-379.266 711.14 518.121 594.58 119.561 937.993" stroke="#3B3838" stroke-width="8.2894"/>
<path d="M-233.631 -227.831C-595.427 -173.102 -1162.66 -62.3443 -874.085 287.289C-506.858 732.223 390.529 615.663 -8.03118 959.076" stroke="#3B3838" stroke-width="8.2894"/>
</g>
<defs>
<clipPath id="clip0_136_562">
<rect width="2400" height="960" fill="white" transform="translate(-336 -85)"/>
</clipPath>
</defs>
</svg>
